<svg width="36" height="36" viewBox="0 0 36 36" fill="none" xmlns="http://www.w3.org/2000/svg">
<path fill-rule="evenodd" clip-rule="evenodd" d="M9 4.59326H14.25C17.5637 4.59326 20.25 7.27955 20.25 10.5933V28.5933H15.75C15.75 25.6938 13.3995 23.3433 10.5 23.3433C8.01576 23.3433 5.93567 25.0677 5.38978 27.386C3.93826 26.2909 3 24.5517 3 22.5933V10.5933C3 7.27955 5.68629 4.59326 9 4.59326ZM16.9939 11.5288C17.3056 11.8016 17.3372 12.2754 17.0644 12.5871L12.4445 17.867C11.8278 18.5718 10.7656 18.6662 10.0343 18.0812L7.03148 15.6789C6.70803 15.4202 6.65559 14.9482 6.91435 14.6247C7.17311 14.3013 7.64507 14.2489 7.96852 14.5076L10.9713 16.9099C11.0758 16.9934 11.2276 16.98 11.3157 16.8793L15.9356 11.5994C16.2083 11.2877 16.6822 11.2561 16.9939 11.5288ZM32.1684 27.6664C31.7307 25.209 29.5832 23.3433 27 23.3433C25.0903 23.3433 23.4187 24.3629 22.5 25.8876V10.5933H25.8137C26.5758 10.5933 27.3094 10.8834 27.8655 11.4046L32.0518 15.3293C32.6568 15.8965 33 16.6887 33 17.518V25.5933C33 26.3974 32.6836 27.1277 32.1684 27.6664ZM13.5 28.5933C13.5 30.2501 12.1569 31.5933 10.5 31.5933C8.84315 31.5933 7.5 30.2501 7.5 28.5933C7.5 28.5303 7.50194 28.4677 7.50577 28.4057C7.60258 26.8362 8.90613 25.5933 10.5 25.5933C12.1569 25.5933 13.5 26.9364 13.5 28.5933ZM30 28.5933C30 30.2501 28.6569 31.5933 27 31.5933C25.3431 31.5933 24 30.2501 24 28.5933C24 26.9364 25.3431 25.5933 27 25.5933C28.6569 25.5933 30 26.9364 30 28.5933Z" fill="#35A9E1"/>
</svg>
