<svg width="36" height="36" viewBox="0 0 36 36" fill="none" xmlns="http://www.w3.org/2000/svg">
<path fill-rule="evenodd" clip-rule="evenodd" d="M33 17.9998C33 26.2841 26.2843 32.9998 18 32.9998C17.1716 32.9998 16.5 32.3282 16.5 31.4998V26.9998C16.5 25.343 15.1569 23.9998 13.5 23.9998H6.00002C4.34317 23.9998 3.00002 22.6567 3.00002 20.9998V17.9998C3.00002 9.71555 9.71575 2.99982 18 2.99982C26.2843 2.99982 33 9.71555 33 17.9998ZM18 7.87483C17.3787 7.87483 16.875 8.37851 16.875 8.99983V15.2179C15.7756 15.6629 15 16.7408 15 17.9998C15 19.6567 16.3432 20.9998 18 20.9998C18.4401 20.9998 18.8581 20.9051 19.2346 20.7348C19.2882 20.8471 19.3615 20.9523 19.4545 21.0453L21.7045 23.2953C22.1439 23.7347 22.8562 23.7347 23.2955 23.2953C23.7349 22.856 23.7349 22.1437 23.2955 21.7043L21.0455 19.4543C20.9525 19.3613 20.8473 19.288 20.735 19.2344C20.9053 18.8579 21 18.4399 21 17.9998C21 16.7408 20.2245 15.6629 19.125 15.2179V8.99983C19.125 8.37851 18.6214 7.87483 18 7.87483ZM1.87502 32.9998C1.87502 32.3785 2.3787 31.8748 3.00002 31.8748H12C12.6213 31.8748 13.125 32.3785 13.125 32.9998C13.125 33.6211 12.6213 34.1248 12 34.1248H3.00002C2.3787 34.1248 1.87502 33.6211 1.87502 32.9998ZM3.00002 27.3748C2.3787 27.3748 1.87502 27.8785 1.87502 28.4998C1.87502 29.1211 2.3787 29.6248 3.00002 29.6248H9.00002C9.62134 29.6248 10.125 29.1211 10.125 28.4998C10.125 27.8785 9.62134 27.3748 9.00002 27.3748H3.00002Z" fill="#35A9E1"/>
</svg>
