<svg width="36" height="36" viewBox="0 0 36 36" fill="none" xmlns="http://www.w3.org/2000/svg">
<path fill-rule="evenodd" clip-rule="evenodd" d="M23.403 7.875H12.597C10.8533 5.51973 13.2025 2.22341 16.1206 3.16477L17.5123 3.61371C17.8291 3.71592 18.1709 3.71593 18.4878 3.61371L19.8794 3.16477C22.7975 2.22341 25.1467 5.51973 23.403 7.875ZM12.7593 10.125H23.2408C25.2197 11.2207 26.7657 13.0502 27.4736 15.3155L29.3486 21.3155C31.1597 27.1109 26.8301 33 20.7583 33H15.2417C9.16999 33 4.84037 27.1109 6.65143 21.3155L8.52643 15.3155C9.23435 13.0502 10.7804 11.2207 12.7593 10.125ZM18.75 14.25C18.75 13.8358 18.4142 13.5 18 13.5C17.5858 13.5 17.25 13.8358 17.25 14.25V15.8189C15.5978 16.125 14.25 17.4221 14.25 19.125C14.25 21.0799 16.0261 22.5 18 22.5C19.3398 22.5 20.25 23.4304 20.25 24.375C20.25 25.3196 19.3398 26.25 18 26.25C16.6602 26.25 15.75 25.3196 15.75 24.375C15.75 23.9608 15.4142 23.625 15 23.625C14.5858 23.625 14.25 23.9608 14.25 24.375C14.25 26.0779 15.5978 27.375 17.25 27.6811V29.25C17.25 29.6642 17.5858 30 18 30C18.4142 30 18.75 29.6642 18.75 29.25V27.6811C20.4022 27.375 21.75 26.0779 21.75 24.375C21.75 22.4201 19.9739 21 18 21C16.6602 21 15.75 20.0696 15.75 19.125C15.75 18.1804 16.6602 17.25 18 17.25C19.3398 17.25 20.25 18.1804 20.25 19.125C20.25 19.5392 20.5858 19.875 21 19.875C21.4142 19.875 21.75 19.5392 21.75 19.125C21.75 17.4221 20.4022 16.125 18.75 15.8189V14.25Z" fill="#35A9E1"/>
</svg>
