<svg width="36" height="36" viewBox="0 0 36 36" fill="none" xmlns="http://www.w3.org/2000/svg">
<path fill-rule="evenodd" clip-rule="evenodd" d="M7.99872 7.06604L15.5562 3.54629C17.1201 2.8179 18.9054 2.8179 20.4693 3.54629L27.9968 7.05208C30.1981 8.07727 31.643 10.3814 31.4887 12.9005C30.8971 22.5629 28.261 26.9309 21.1348 31.9984C19.2542 33.3357 16.7734 33.3324 14.8914 31.9973C7.78711 26.9572 5.05307 22.6501 4.50925 12.8666C4.37015 10.3641 5.81272 8.08413 7.99872 7.06604ZM23.3466 15.7408C23.7557 15.2732 23.7084 14.5625 23.2408 14.1534C22.7732 13.7442 22.0624 13.7916 21.6533 14.2592L17.3484 19.179C17.2163 19.3301 16.9887 19.3503 16.832 19.2249L14.2027 17.1215C13.7176 16.7334 13.0096 16.8121 12.6215 17.2972C12.2333 17.7824 12.312 18.4904 12.7972 18.8785L15.4264 20.9819C16.5233 21.8594 18.1167 21.7179 19.0417 20.6607L23.3466 15.7408Z" fill="#35A9E1"/>
</svg>
